<?xml version="1.0" standalone="no"?><!DOCTYPE svg PUBLIC "-//W3C//DTD SVG 1.1//EN"
  "http://www.w3.org/Graphics/SVG/1.1/DTD/svg11.dtd">
<svg t="1600416719391" class="icon" viewBox="0 0 1024 1024" version="1.1"
  xmlns="http://www.w3.org/2000/svg" p-id="2887"
  width="200" height="200">
  <defs>
    <style type="text/css"></style>
  </defs>
  <path
    d="M586.8544 440.1152a47.3344 47.3344 0 0 1 50.1504-10.9824c0.4864 0.2304 0.9472 0.4864 1.5616 0.5888a10.9568 10.9568 0 0 0 10.8544-2.7392 10.496 10.496 0 0 0 2.6368-4.5312 10.5984 10.5984 0 0 0-2.6368-10.9824l-96.8192-96.8192-80 80a10.9312 10.9312 0 0 1-18.2528-10.8544c0.128-0.5888 0.3584-1.0752 0.5888-1.5616a47.5136 47.5136 0 1 0-28.544 28.288 5.632 5.632 0 0 1 2.3808-0.9472c0.2304 0 0.3584-0.128 0.5888-0.128a10.9312 10.9312 0 0 1 9.9072 18.5088l-78.7968 78.7968 92.8768 92.8768a10.9312 10.9312 0 0 1-10.8544 18.2528c-0.5888-0.128-1.0752-0.3584-1.5616-0.5888a47.5136 47.5136 0 1 0 28.288 28.544 5.632 5.632 0 0 1-0.9472-2.3808c0-0.2304-0.128-0.3584-0.128-0.5888a10.9312 10.9312 0 0 1 18.5088-9.9072l61.7216 61.7216 187.9296-187.9296 4.1728-4.1728-57.7792-57.7792a10.5984 10.5984 0 0 0-10.9824-2.6368 10.24 10.24 0 0 0-4.5312 2.6368 10.9056 10.9056 0 0 0-2.9952 9.9072c0 0.2304 0.128 0.3584 0.128 0.5888a6.1952 6.1952 0 0 0 0.9472 2.3808 47.5648 47.5648 0 0 1-78.3104 49.664 47.5392 47.5392 0 0 1-0.1024-67.2256z"
    fill="#d4237a" p-id="2888"></path>
  <path
    d="M806.1696 785.0496a12.8256 12.8256 0 0 1-6.4-23.8848l49.5616-28.6208c13.7728-7.9872 22.3488-22.8096 22.3488-38.7072V330.1376c0-15.8976-8.576-30.7456-22.3488-38.7072L534.3488 109.5936a44.7488 44.7488 0 0 0-44.6976 0l-119.1168 68.7872a12.8 12.8 0 1 1-12.8-22.1696l119.1168-68.7872a70.6048 70.6048 0 0 1 70.2976 0l314.9824 181.8624a70.5536 70.5536 0 0 1 35.1488 60.8768v363.6992c0 25.0112-13.4656 48.3328-35.1488 60.8512l-49.5616 28.6208a12.6464 12.6464 0 0 1-6.4 1.7152z"
    fill="#d4237a" p-id="2889"></path>
  <path
    d="M322.0224 252.288c-33.7408 0-61.2096-27.4432-61.2096-61.184s27.4432-61.184 61.2096-61.184c33.7152 0 61.184 27.4432 61.184 61.184s-27.4688 61.184-61.184 61.184z m0-96.768c-19.6352 0-35.6096 15.9744-35.6096 35.584s15.9744 35.584 35.6096 35.584 35.584-15.9744 35.584-35.584-15.9488-35.584-35.584-35.584z"
    fill="#d4237a" p-id="2890"></path>
  <path
    d="M512 945.9712c-12.16 0-24.2944-3.1232-35.1488-9.3952L161.8688 754.7136a70.4768 70.4768 0 0 1-35.1488-60.8512V330.1376c0-25.0112 13.4656-48.3328 35.1488-60.8768L211.4304 240.64a12.7488 12.7488 0 0 1 17.4848 4.6848 12.7488 12.7488 0 0 1-4.6848 17.4848l-49.5616 28.6208a44.8768 44.8768 0 0 0-22.3488 38.7072v363.6992c0 15.8976 8.576 30.7456 22.3488 38.7072l314.9824 181.8624a44.8 44.8 0 0 0 44.6976 0l119.1168-68.7872a12.7232 12.7232 0 0 1 17.4848 4.6848 12.7488 12.7488 0 0 1-4.6848 17.4848l-119.1168 68.7872a70.1696 70.1696 0 0 1-35.1488 9.3952z"
    fill="#d4237a" p-id="2891"></path>
  <path
    d="M701.9776 894.08a61.2608 61.2608 0 0 1-61.184-61.184 61.2608 61.2608 0 0 1 61.184-61.2096 61.2864 61.2864 0 0 1 61.2096 61.2096 61.2608 61.2608 0 0 1-61.2096 61.184z m0-96.768a35.6352 35.6352 0 0 0 0 71.1936 35.6352 35.6352 0 0 0 0-71.1936z"
    fill="#d4237a" p-id="2892"></path>
</svg>