<?xml version="1.0" standalone="no"?><!DOCTYPE svg PUBLIC "-//W3C//DTD SVG 1.1//EN"
  "http://www.w3.org/Graphics/SVG/1.1/DTD/svg11.dtd">
<svg t="1600311516943" class="icon" viewBox="0 0 1024 1024" version="1.1"
  xmlns="http://www.w3.org/2000/svg" p-id="6861"
  width="200" height="200">
  <defs>
    <style type="text/css"></style>
  </defs>
  <path
    d="M164 688h496a20 20 0 0 1 20 20v160a20 20 0 0 1-20 20H164a20 20 0 0 1-20-20v-160a20 20 0 0 1 20-20z m54 112a18 18 0 1 0-18-18 17.96 17.96 0 0 0 18 18z"
    fill="#0942F0" p-id="6862"></path>
  <path
    d="M164 472h496a20 20 0 0 1 20 20v160a20 20 0 0 1-20 20H164a20 20 0 0 1-20-20v-160a20 20 0 0 1 20-20z m54 112a18 18 0 1 0-18-18 17.96 17.96 0 0 0 18 18zM164 258h496a20 20 0 0 1 20 20v160a20 20 0 0 1-20 20H164a20 20 0 0 1-20-20v-160a20 20 0 0 1 20-20zM218 384a18 18 0 1 0-18-18 17.96 17.96 0 0 0 18 18z"
    fill="#0942F0" p-id="6863"></path>
  <path d="M484 344m8 0l132 0q8 0 8 8l0 20q0 8-8 8l-132 0q-8 0-8-8l0-20q0-8 8-8Z" fill="#F9F9F9"
    p-id="6864"></path>
  <path
    d="M867.76 875.12A56 56 0 0 1 832 888h-264a56 56 0 0 1-35.76-12.88 74 74 0 0 1 80-124.36c-0.24-2.88-0.4-5.8-0.4-8.76a90 90 0 0 1 180 0q0 3.24-0.24 6.36a74.04 74.04 0 0 1 76 126.76z"
    fill="#47BAFF" p-id="6865"></path>
  <path d="M660 799.08l32.4-42.28 6.48 4.68-32.4 42.32-6.48-4.72z" fill="#FFFFFF"
    p-id="6866"></path>
  <path d="M668.08 811.36l69.28 0.12 0.12 8-69.24-0.12-0.16-8z" fill="#FFFFFF" p-id="6867"></path>
</svg>